# xmcd
#
# Track frame offsets:
#	150
#	14785
#	26842
#	45140
#	63857
#	77435
#	107192
#	126827
#	148082
#	159062
#	174105
#	189707
#	198247
#
# Disc length: 2875 seconds
#
# Revision: 0
# Processed by: cddbd v1.5.2PL0 Copyright (c) Steve Scherf et al.
# Submitted via: audiograbber 1.83.01
#
DISCID=a10b390d
DTITLE=ZZ Top - Hi-Fi Mama (Live)
DYEAR=1980
DGENRE=Blues Rock
TTITLE0=I Thank You (Live 1980 in Passiac, N.Y.)
TTITLE1=Waiting For The Blues (Live 1980 in Passiac, N.Y.)
TTITLE2=Jesus Just Left Chicago (Live 1980 in Passiac, N.Y.)
TTITLE3=I'm Bad, I'm Nationwide (Live 1980 in Passiac, N.Y.)
TTITLE4=Low Down In The Streets (Live 1980 in Passiac, N.Y.)
TTITLE5=A Fool For Your Stockings (Live 1980 in Passiac, N.Y.)
TTITLE6=Cheap Sunglasses (Live 1980 in Passiac, N.Y.)
TTITLE7=Arrested For Driving While Blind (Live 1980 in Passiac, N.Y.)
TTITLE8=She Loves My Automobile (Live 1980 in Passiac, N.Y.)
TTITLE9=Hi-Fi Mama (Live 1980 in Passiac, N.Y.)
TTITLE10=Dust My Broom (Live 1980 in Passiac, N.Y.)
TTITLE11=Jailhouse Rock (Live 1980 in Passiac, N.Y.)
TTITLE12=Tush (Live 1980 in Passiac, N.Y.)
EXTD=
EXTT0=
EXTT1=
EXTT2=
EXTT3=
EXTT4=
EXTT5=
EXTT6=
EXTT7=
EXTT8=
EXTT9=
EXTT10=
EXTT11=
EXTT12=
PLAYORDER=
